<svg id="Layer_1" data-name="Layer 1" xmlns="http://www.w3.org/2000/svg" viewBox="0 0 525 321">
  <g>
    <path d="M466.63,71.63l-11.61,0-11.61-.11L445,70.13c-.21,7.05-.37,14.1-.63,21.14l0,1.28-1.31.82-14.91,9.28-7.45,4.65c-2.48,1.55-5.05,2.94-7.64,4.3l-2.83,1.49-2.06-2.22c-3.69-4-7.5-7.83-11.25-11.75l2.84,1.22-43.88-.42L359,98.34l-12.35,16.19.82-2.42v30.83l-4.76-.92L252,124.55l1.45,0L154.62,142l-1.89.34-1.44-1.27-6.82-6-.79-.69-.35-1-3-8.52L142,127l-14.49-8.94-2-1.21.06-2.3.42-16.62.1-3.89h9.44l-1.74,7.6L106.59,88.44l3.26.1L93.24,95.36l-5.51,2.26v-6c0-3.13,0-6.25,0-9.38s-.12-6.24.07-9.37l.95-18.74,2,2.82L76.84,51.17,63,45.29l1.14-.1-10,4.92L44.22,55,53.5,48.9l9.29-6.1.46-.3.69.2L78.35,47l14.39,4.35,1.87.56.12,2.27,1,18.74c.19,3.13.13,6.25.07,9.37s0,6.25,0,9.38L90.2,88l16.62-6.82,1.65-.68,1.61.78,27.26,13.21,15.7,7.6h-23l4-3.9-.42,16.61-1.9-3.5,14.48,8.95,1.21.74.47,1.34,3,8.52-1.14-1.69,6.81,6-3.33-.92,98.84-17.47.73-.13.73.14,90.74,17.47-4.75,3.92V110.75l.82-1.07,12.35-16.19,1.22-1.59,2,0,43.88.42,1.67,0,1.17,1.21c3.78,3.89,7.5,7.84,11.33,11.68l-4.88-.74c2.52-1.47,5.07-2.91,7.69-4.2l7.89-3.86,15.77-7.73-1.36,2.1c.95-7,2-14,3-20.94l.22-1.51,1.35.17,11.51,1.52Z" style="fill: #fff"/>
    <path d="M419.62,255.54l-18.46,1.07-18.47.89c-6.15.31-12.31.51-18.46.77l-18.46.72-3.7.15-.15-4-.8-20.66-.4-10.33-.29-10.33.24,1.59-.62-1.63-.71-1.72c-.49-1.16-1-2.31-1.55-3.45-1.08-2.29-2.24-4.56-3.47-6.78A132.34,132.34,0,0,0,326.21,189a105.37,105.37,0,0,0-20.46-21.87,90,90,0,0,0-25.63-14.35,86.13,86.13,0,0,0-14.24-3.7c-2.43-.38-4.87-.74-7.33-.93-1.23-.13-2.47-.18-3.7-.26s-2.39-.07-3.59-.13-2.35,0-3.58.12-2.48.13-3.7.26c-2.47.19-4.91.55-7.34.93a86.13,86.13,0,0,0-14.24,3.7,90,90,0,0,0-25.64,14.35A105.37,105.37,0,0,0,176.3,189a132.43,132.43,0,0,0-8.12,12.85q-1.85,3.35-3.46,6.78c-.54,1.14-1.06,2.3-1.55,3.45l-.71,1.73-.63,1.62.24-1.58-.29,10.33-.4,10.33-.79,20.66-.15,4-3.68-.15-17.69-.72c-5.89-.26-11.78-.46-17.68-.77l-17.68-.88L86,255.54v-.8l70.73-.1-.51.5-.07-41.32v-.1l0-.08a108.26,108.26,0,0,1,6.31-14.73,131.42,131.42,0,0,1,8.15-13.77,112.91,112.91,0,0,1,21.39-23.75,93.41,93.41,0,0,1,27.71-15.94,94.56,94.56,0,0,1,15.5-4.16,105.71,105.71,0,0,1,16-1.54,105.58,105.58,0,0,1,16,1.54,92.91,92.91,0,0,1,43.22,20.09,112.92,112.92,0,0,1,21.38,23.76A128,128,0,0,1,340,198.91a109.58,109.58,0,0,1,6.32,14.73l0,.08v.1l-.07,41.32-.5-.5,73.85.1Z" style="fill: #fff"/>
  </g>
  <g>
    <path d="M266.32,232.76l-5.92-3.41H245L239,232.76c5.66,9.83,22.58,25.93,40.92,27.33-6.39-3.58-16.56-16.44-13.64-27.33" style="fill: #fff"/>
    <path d="M253.65,214.28h0l-.11-.2ZM270.49,182c.1,7.33-5.95,22.56-16.84,25.48v6.83l7.73,13.38,5.91,3.42c5.68-9.82,11.17-32.53,3.2-49.11" style="fill: #fff"/>
    <path d="M244,227.66h0l-.12.2Zm7.73-20.21c-11.35,0-33.76,6.59-44.13,21.78,6.3-3.75,22.52-6.13,30.49,1.85l5.91-3.42,7.72-13.38Z" style="fill: #fff"/>
    <path d="M249.06,223.76a3.62,3.62,0,1,1,3.62,3.62,3.62,3.62,0,0,1-3.62-3.62" style="fill: #fff"/>
  </g>
</svg>
